<svg width="190" height="32" viewBox="0 0 190 32" fill="none" xmlns="http://www.w3.org/2000/svg">
    <path d="M0.904 22.976L3.688 17.096H7.552L4.888 23L0.904 22.976ZM7.984 15.944H4.216L5.344 13.496H10.72L18.376 19.472L21.208 13.52H25L20.656 22.952H16.816C13.984 20.744 11.696 18.952 9.952 17.576C9.344 17.096 8.688 16.552 7.984 15.944ZM43.9795 17.096C44.3475 17.096 44.6275 16.888 44.8195 16.472C44.8355 16.136 44.7315 15.968 44.5075 15.968H28.6435L29.7475 13.568L45.8275 13.544C46.4835 13.544 47.0515 13.672 47.5315 13.928C48.1555 14.232 48.4675 14.68 48.4675 15.272C48.4675 15.512 48.2595 16.104 47.8435 17.048C47.6355 17.496 47.4675 17.832 47.3395 18.056C47.0995 18.472 46.8435 18.776 46.5715 18.968C46.5555 18.984 46.4035 19.056 46.1155 19.184C46.3875 19.36 46.5235 19.576 46.5235 19.832C46.5235 19.864 46.0995 20.784 45.2515 22.592C45.1235 22.864 44.8755 23 44.5075 23H41.9155C41.7235 22.872 41.5715 22.704 41.4595 22.496L42.5875 20.048C42.5075 19.696 42.2835 19.52 41.9155 19.52H30.8995L29.5315 22.544C29.3875 22.848 29.1795 23 28.9075 23H26.1475C25.8275 23 25.6435 22.832 25.5955 22.496L28.1395 17.072L43.9795 17.096ZM65.7438 20.6L66.2477 19.52H62.1678L62.9598 17.696C63.0078 17.552 63.1037 17.344 63.2477 17.072H71.1918L68.4798 23H64.6158L64.9037 22.376L63.6558 23H49.3757C49.1357 22.888 49.0157 22.72 49.0157 22.496L51.5837 17.072H55.3997L53.9837 20.216C54.0317 20.472 54.1517 20.6 54.3437 20.6H65.7438ZM52.0397 15.968L53.0237 13.952C53.0877 13.824 53.2957 13.688 53.6477 13.544H72.3678C72.5598 13.544 72.6558 13.648 72.6558 13.856C72.6558 13.952 72.3998 14.544 71.8878 15.632C71.7918 15.856 71.5838 15.968 71.2638 15.968H52.0397ZM103.739 17.096C104.107 17.096 104.387 16.888 104.579 16.472C104.595 16.136 104.491 15.968 104.267 15.968H88.4026L89.5066 13.568L105.587 13.544C106.243 13.544 106.811 13.672 107.291 13.928C107.915 14.232 108.227 14.68 108.227 15.272C108.227 15.512 108.019 16.104 107.603 17.048C107.395 17.496 107.227 17.832 107.099 18.056C106.859 18.472 106.603 18.776 106.331 18.968C106.315 18.984 106.163 19.056 105.875 19.184C106.147 19.36 106.283 19.576 106.283 19.832C106.283 19.864 105.859 20.784 105.011 22.592C104.883 22.864 104.635 23 104.267 23H101.675C101.483 22.872 101.331 22.704 101.219 22.496L102.347 20.048C102.267 19.696 102.043 19.52 101.675 19.52H90.6586L89.2906 22.544C89.1466 22.848 88.9386 23 88.6666 23H85.9066C85.5866 23 85.4026 22.832 85.3546 22.496L87.8986 17.072L103.739 17.096ZM111.823 15.968L112.495 14.48C112.767 13.872 113.407 13.568 114.415 13.568L132.055 13.544C132.119 13.544 132.191 13.584 132.271 13.664C132.351 13.744 132.391 13.816 132.391 13.88C132.391 13.96 132.375 14.04 132.343 14.12L131.623 15.68C131.527 15.872 131.319 15.968 130.999 15.968H111.823ZM111.271 17.096H130.447C130.639 17.096 130.735 17.2 130.735 17.408C130.735 17.504 130.719 17.584 130.687 17.648L129.967 19.232C129.887 19.424 129.695 19.52 129.391 19.52H114.055C113.511 19.52 113.239 19.768 113.239 20.264C113.239 20.488 113.351 20.6 113.575 20.6H128.743C128.935 20.712 129.047 20.88 129.079 21.104L128.407 22.64C128.295 22.88 128.103 23 127.831 23L110.431 22.976C110.127 22.976 109.879 22.84 109.687 22.568C109.495 22.28 109.399 21.984 109.399 21.68C109.399 21.376 109.447 21.12 109.543 20.912L111.271 17.096ZM135.898 15.968L136.762 14.144C137.162 13.76 137.514 13.568 137.818 13.568H155.53C155.818 13.568 156.042 13.688 156.202 13.928C156.266 14.04 156.306 14.2 156.322 14.408L152.53 22.544C152.162 22.848 151.85 23 151.594 23H149.434C149.13 22.76 148.954 22.448 148.906 22.064L151.45 16.616C151.322 16.328 151.098 16.112 150.778 15.968H148.354C147.954 16.128 147.602 16.352 147.298 16.64L144.634 22.448C144.09 22.816 143.738 23 143.578 23H141.586C141.298 22.568 141.098 22.256 140.986 22.064L143.482 16.688C143.402 16.208 143.138 15.968 142.69 15.968H135.898ZM135.394 17.072H139.258L136.786 22.448C136.258 22.816 135.898 23 135.706 23H133.618C133.314 22.776 133.13 22.48 133.066 22.112L135.394 17.072ZM159.905 15.968L160.865 13.832C160.945 13.64 161.129 13.544 161.417 13.544H164.417C164.593 13.544 164.681 13.624 164.681 13.784C164.681 13.848 164.369 14.576 163.745 15.968H159.905ZM159.353 17.096H163.217L160.721 22.568C160.593 22.856 160.401 23 160.145 23H157.121C156.913 22.968 156.809 22.848 156.809 22.64C156.809 22.56 157.657 20.712 159.353 17.096ZM165.201 22.976L183.297 13.544L189.201 13.568L171.201 23L165.201 22.976ZM178.161 17.096L184.857 23H180.201L173.577 17.096H178.161ZM172.329 15.944L169.593 13.568H174.249L177.033 15.944H172.329Z" fill="#99FF00"/>
</svg>